# xmcd CD database file
#
# Track frame offsets:
#	150
#	21802
#	33138
#	52607
#	70138
#	87266
#	100302
#	113457
#	129424
#	145905
#	157406
#	176378
#	188254
#	204087
#	219001
#	235562
#	254780
#	268047
#
# Disc length: 3840 seconds
#
# Revision: 0
# Processed by: cddbd v1.5.2PL0 Copyright (c) Steve Scherf et al.
# Submitted via: CDex 1.70beta2
#
DISCID=e20efe12
DTITLE=Jonny Hill - Lichter auf den Hügeln
DYEAR=2006
DGENRE=Country
TTITLE0=Ruf Teddybär Eins-Vier
TTITLE1=Ich Fahr Meine Tour (Six Days On The Road)
TTITLE2=30 Tonnen Kerosin
TTITLE3=Deine Augen
TTITLE4=Express-Container Paris
TTITLE5=Gott sei Dank gibt's das Radio
TTITLE6=Ich bin wieder zu Haus
TTITLE7=Nimm mich mit in dein Leben
TTITLE8=Wieviel wert sind 20 Jahre
TTITLE9=Lichter auf den Hügeln
TTITLE10=Kinder, alte Hunde und junger herber Wein (Old Dogs Children and Watermelon Wine)
TTITLE11=Mehr Hinterm Lenkrad Als Zu Haus (Truck Driving Man)
TTITLE12=Und Wieder Zeigt Dir Einer Einen Vogel
TTITLE13=Vielleicht Bist Du Auch So Allein
TTITLE14=Wenn dich jemand vermisst
TTITLE15=50.000 Kilometer
TTITLE16=Ich bin einer so wie Du
TTITLE17=Hallo Teddybär
EXTD=YEAR: 2006
EXTT0=
EXTT1=
EXTT2=
EXTT3=
EXTT4=
EXTT5=
EXTT6=
EXTT7=
EXTT8=
EXTT9=
EXTT10=
EXTT11=
EXTT12=
EXTT13=
EXTT14=
EXTT15=
EXTT16=
EXTT17=
PLAYORDER=
